<svg xmlns="http://www.w3.org/2000/svg" width="96" height="96" viewBox="0 0 96 96" fill="none">
  <rect width="96" height="96" fill="#000"/>
  <g transform="translate(16 16)">
    <path fill="#fff" d="m58.643 31.01 3.33-.934.292 2.253-3.037.22 1.994 2.656-2.03 1.08-1.39-2.802-1.226 2.784-2.104-1.062 1.976-2.656-3.019-.238.348-2.235 3.256.934-.366-3.297h2.342zm-3.39 12.771 3.329-.934.292 2.253-3.036.22 1.994 2.656-2.03 1.08-1.391-2.802-1.226 2.784-2.103-1.062 1.975-2.656-3.018-.238.348-2.235 3.256.934-.366-3.296h2.341zm-9.39 9.459 3.33-.934.292 2.253-3.036.22 1.993 2.655-2.03 1.081-1.39-2.802-1.226 2.784-2.104-1.063 1.976-2.655-3.018-.238.347-2.235 3.256.934-.365-3.297h2.34zm-13.036 3.485 3.329-.934.293 2.253-3.037.22 1.994 2.655L33.376 62l-1.391-2.802-1.226 2.784-2.103-1.063 1.975-2.655-3.018-.239.348-2.234 3.256.934-.366-3.297h2.341zM20.08 53.291l3.33-.934.292 2.253-3.036.22 1.994 2.655-2.03 1.081-1.391-2.802-1.226 2.784-2.103-1.063 1.975-2.655-3.018-.238.347-2.235 3.257.934-.366-3.297h2.341zm-9.426-9.421 3.329-.935.293 2.253-3.037.22 1.994 2.656-2.03 1.08-1.39-2.802-1.226 2.784-2.104-1.062 1.975-2.656-3.018-.238.348-2.235 3.256.934-.366-3.296h2.342zm-3.44-13.062 3.329-.934.293 2.252-3.037.22 1.994 2.656-2.03 1.08-1.391-2.802-1.226 2.784-2.103-1.062 1.975-2.656L2 32.108l.348-2.234 3.256.934-.366-3.297h2.341zm3.477-12.721 3.33-.934.292 2.253-3.037.22 1.994 2.655-2.03 1.08-1.39-2.802-1.226 2.784-2.104-1.062 1.976-2.656-3.018-.238.347-2.234 3.256.934-.366-3.297h2.342zm9.454-9.395 3.33-.934.292 2.253-3.037.22 1.994 2.655-2.03 1.081-1.39-2.802-1.226 2.784-2.104-1.063 1.976-2.655-3.019-.238.348-2.235 3.256.934-.366-3.297h2.342zm13.086-3.395 3.33-.934.292 2.253-3.036.22L35.81 9.49l-2.031 1.08-1.39-2.802-1.226 2.784-2.104-1.062 1.976-2.656-3.018-.238.347-2.234 3.257.934L31.256 2h2.341zm12.696 3.52 3.33-.933.292 2.252-3.036.22 1.993 2.656-2.03 1.08-1.39-2.802-1.226 2.784-2.104-1.062 1.976-2.656-3.018-.238.347-2.234 3.256.933-.365-3.296h2.34zm9.363 9.486 3.329-.934.293 2.253-3.037.22 1.994 2.656-2.03 1.08-1.39-2.802-1.227 2.784-2.103-1.062 1.975-2.656-3.018-.238.348-2.235 3.256.934-.366-3.296h2.341z"/>
  </g>
</svg>
